<?xml version="1.0" standalone="no"?>
<!DOCTYPE svg PUBLIC "-//W3C//DTD SVG 20010904//EN"
 "http://www.w3.org/TR/2001/REC-SVG-20010904/DTD/svg10.dtd">
<svg version="1.0" xmlns="http://www.w3.org/2000/svg"
 width="512.000000pt" height="512.000000pt" viewBox="0 0 512.000000 512.000000"
 preserveAspectRatio="xMidYMid meet">
<metadata>
Created by potrace 1.14, written by Peter Selinger 2001-2017
</metadata>
<g transform="translate(0.000000,512.000000) scale(0.100000,-0.100000)"
fill="#000000" stroke="none">
<path d="M4445 5080 c-69 -21 -117 -65 -204 -185 -84 -115 -88 -119 -126 -121
-60 -2 -96 -65 -65 -114 6 -10 4 -23 -7 -40 -21 -32 -423 -592 -435 -605 -6
-6 -366 -10 -1031 -10 -808 -1 -1034 -4 -1077 -14 -139 -33 -275 -150 -324
-277 -31 -81 -37 -131 -38 -325 l-1 -199 -321 -1 c-177 0 -332 -3 -346 -5 -91
-17 -195 -101 -239 -194 l-26 -55 0 -1201 0 -1202 -93 2 c-51 1 -97 -1 -103
-5 -8 -4 -10 -49 -7 -140 4 -120 7 -139 30 -185 31 -60 93 -118 157 -148 l46
-21 2325 0 2325 0 55 26 c66 31 118 82 151 146 22 44 24 59 24 188 l0 140 -90
1 c-49 1 -94 2 -100 3 -7 1 -10 408 -10 1199 l0 1197 -28 57 c-34 69 -94 131
-162 166 l-50 27 -362 3 -363 3 0 206 0 206 63 86 c35 47 156 214 268 369
l204 284 36 -41 c55 -61 65 -147 27 -217 -13 -22 -86 -127 -163 -233 -216
-297 -214 -294 -174 -345 23 -29 73 -36 101 -13 29 22 361 491 384 542 40 87
36 216 -10 304 -10 19 -38 56 -63 82 l-45 48 87 120 c48 66 93 140 100 164 36
119 -21 249 -135 307 -46 23 -141 34 -185 20z"/>
</g>
</svg>
